{"glyphs":{"$":{"x_min":0,"x_max":501,"ha":501,"o":"m 361 480 q 393 509 393 539 q 393 574 345 584 l 317 403 q 388 371 420 331 q 452 291 452 233 q 452 149 398 95 q 345 41 258 32 l 244 -61 l 229 -72 l 182 -67 l 197 30 q 34 37 34 139 q 34 172 56 194 q 77 217 107 217 q 137 217 163 191 q 148 167 148 143 q 148 119 163 102 q 178 85 205 80 l 238 286 q 162 318 131 354 q 100 390 100 442 q 100 517 154 569 q 209 621 292 631 l 308 732 l 330 744 l 370 739 l 353 632 q 414 627 454 598 q 493 568 493 532 q 493 496 474 474 q 454 453 422 453 q 391 453 361 480 z m 227 500 q 227 462 261 435 l 284 580 q 227 560 227 500 z m 319 179 q 319 220 292 248 l 267 89 q 319 114 319 179 z"},"<":{"x_min":0,"x_max":573,"ha":573,"o":"m 53 222 l 73 349 l 543 524 l 562 431 l 158 285 l 516 140 l 467 47 z"},"'":{"x_min":0,"x_max":244,"ha":244,"o":"m 124 572 q 124 703 188 703 q 209 703 222 691 q 236 679 236 662 q 236 637 192 504 l 177 460 l 125 460 q 124 533 124 572 z"},"=":{"x_min":0,"x_max":573,"ha":573,"o":"m 36 145 l 51 240 l 520 240 l 505 145 z m 66 332 l 81 427 l 550 427 l 535 332 z"},"a":{"x_min":0,"x_max":570,"ha":570,"o":"m 467 93 q 467 69 488 69 q 511 69 535 84 l 548 46 q 467 -6 406 -6 q 334 -6 326 56 q 279 -11 196 -11 q 129 -11 83 38 q 37 87 37 181 q 37 334 113 413 q 189 492 309 492 q 356 492 413 472 l 497 491 l 527 476 l 521 438 q 515 401 506 347 q 497 293 488 238 q 467 108 467 93 z m 241 50 q 277 50 304 102 q 332 155 348 249 l 380 434 q 356 443 332 443 q 268 443 224 376 q 181 308 181 179 q 181 50 241 50 z"},"L":{"x_min":0,"x_max":531,"ha":531,"o":"m 437 184 q 461 191 478 191 q 494 191 505 188 l 465 0 l 5 0 l 10 41 q 51 47 82 71 l 165 596 q 147 619 99 626 l 105 667 l 401 667 l 395 626 q 339 616 312 596 l 227 62 l 374 62 q 410 107 437 184 z"},"3":{"x_min":0,"x_max":573,"ha":573,"o":"m 385 541 q 385 581 368 601 q 352 621 327 621 q 286 621 262 588 q 238 555 238 512 q 238 491 244 473 q 211 443 172 443 q 132 443 114 463 q 95 483 95 515 q 95 590 168 634 q 240 679 334 679 q 429 679 484 633 q 538 587 538 528 q 538 468 498 421 q 458 374 381 351 q 447 336 476 302 q 505 268 505 214 q 505 116 420 54 q 335 -8 225 -8 q 142 -8 84 26 q 26 60 26 116 q 26 159 52 184 q 77 209 114 209 q 151 209 182 181 q 165 155 165 128 q 165 100 182 82 q 199 63 232 63 q 281 63 312 101 q 342 139 342 194 q 342 248 308 284 q 273 319 200 319 l 209 381 q 385 395 385 541 z"},"J":{"x_min":0,"x_max":333,"ha":333,"o":"m 87 626 l 93 667 l 379 667 l 373 626 q 330 618 300 596 l 209 16 q 194 -80 126 -135 q 59 -190 -57 -218 l -69 -163 q 42 -110 59 1 l 153 596 q 135 619 87 626 z"},"V":{"x_min":0,"x_max":596,"ha":596,"o":"m 309 185 l 510 597 q 485 620 430 627 l 435 667 l 661 667 l 655 626 q 608 622 590 602 l 285 0 l 184 0 l 110 585 q 106 614 52 626 l 57 667 l 333 667 l 327 627 q 278 620 260 605 z"},"\"":{"x_min":0,"x_max":400,"ha":400,"o":"m 128 572 q 128 703 192 703 q 213 703 226 691 q 240 679 240 662 q 240 637 196 504 l 181 460 l 129 460 q 128 533 128 572 z m 302 572 q 302 703 366 703 q 387 703 400 691 q 414 679 414 662 q 414 637 370 504 l 355 460 l 303 460 q 302 533 302 572 z"},"7":{"x_min":0,"x_max":573,"ha":573,"o":"m 350 667 l 570 670 l 584 625 q 534 559 450 434 q 283 185 283 93 q 283 53 307 33 q 268 -8 216 -8 q 125 -8 125 74 q 125 150 211 276 q 243 321 309 402 q 375 484 387 499 l 455 587 l 227 587 q 206 541 193 481 q 175 478 156 478 q 136 478 117 481 l 117 653 l 135 670 z"},"S":{"x_min":0,"x_max":501,"ha":501,"o":"m 401 474 l 402 532 q 402 574 391 598 q 362 621 317 621 q 272 621 242 594 q 212 568 212 528 q 212 488 236 463 q 260 438 328 407 q 466 344 466 222 q 466 118 395 56 q 324 -7 210 -7 q 96 -7 6 44 l 56 221 q 87 221 124 208 q 117 150 117 126 q 117 103 120 82 q 159 50 208 50 q 256 50 286 80 q 315 110 315 161 q 315 242 216 286 q 137 321 103 360 q 69 399 69 458 q 69 552 144 614 q 218 675 319 675 q 420 675 507 640 l 475 478 q 451 469 433 469 q 415 469 401 474 z"},"}":{"x_min":0,"x_max":371,"ha":371,"o":"m 126 36 l 122 135 q 122 217 185 282 q 157 339 157 380 q 157 422 184 480 q 212 538 212 579 q 212 620 185 648 q 158 677 111 680 l 119 733 q 211 733 264 690 q 317 647 317 574 q 317 543 290 470 q 262 396 262 374 q 262 353 275 338 q 288 322 301 318 l 314 314 l 304 254 q 301 253 296 252 q 291 251 278 244 q 265 237 255 227 q 229 201 229 156 l 233 43 q 233 -49 162 -107 q 90 -165 -23 -165 l -15 -112 q 47 -109 86 -68 q 126 -27 126 36 z"},"Z":{"x_min":0,"x_max":544,"ha":544,"o":"m 430 198 q 440 201 464 201 q 488 201 513 194 l 474 0 l -3 0 l 0 45 l 379 600 q 272 600 189 592 q 162 535 158 476 q 147 473 124 473 q 102 473 78 480 l 89 639 l 118 667 l 566 667 l 570 631 l 181 69 q 316 69 376 75 q 397 106 430 198 z"},"x":{"x_min":0,"x_max":483,"ha":483,"o":"m 410 86 q 427 86 451 107 l 474 76 q 405 -4 339 -4 q 273 -4 241 61 l 187 173 q 121 109 121 81 q 121 53 164 38 l 159 0 l -9 0 l -20 28 q 24 85 162 226 l 95 367 q 78 400 63 410 q 48 420 21 422 l 15 466 l 168 492 l 208 469 l 277 320 q 341 388 341 414 q 341 435 311 440 l 311 484 l 477 484 l 489 454 l 301 269 l 365 131 q 385 86 410 86 z"},")":{"x_min":0,"x_max":396,"ha":396,"o":"m 197 374 q 197 578 86 705 l 115 730 q 138 716 178 674 q 217 632 243 591 q 269 550 290 484 q 311 417 311 346 q 311 276 292 210 q 274 144 244 94 q 214 45 178 2 q 142 -42 106 -72 q 34 -132 -8 -155 l -27 -165 l -48 -139 q 197 64 197 374 z"},"&":{"x_min":0,"x_max":712,"ha":712,"o":"m 609 372 q 612 345 612 319 q 612 190 542 100 q 457 -8 289 -8 q 175 -8 105 42 q 35 93 35 173 q 35 331 201 386 q 135 418 135 498 q 135 579 206 633 q 276 687 385 687 q 463 687 516 656 q 568 625 568 582 q 568 540 538 510 q 508 480 472 480 q 437 480 416 504 q 441 539 441 566 q 441 593 424 608 q 408 623 380 623 q 337 623 310 591 q 284 559 284 507 q 284 434 352 414 l 342 354 q 182 314 182 184 q 182 129 218 98 q 254 67 311 67 q 417 67 484 130 q 550 193 550 305 q 550 331 547 355 q 496 340 475 320 q 454 301 454 273 q 454 263 456 251 q 428 251 408 268 q 389 284 389 314 q 389 344 414 366 q 438 388 472 397 q 507 406 542 414 q 576 422 600 441 q 625 460 625 486 q 625 512 608 523 q 630 557 662 557 q 670 557 680 554 q 723 543 723 492 q 723 441 693 414 q 663 388 609 372 z"},"_":{"x_min":0,"x_max":352,"ha":352,"o":"m 346 -122 l -5 -122 l 5 -48 l 357 -48 z"},"v":{"x_min":0,"x_max":500,"ha":500,"o":"m 387 399 q 387 428 357 435 l 354 479 l 470 492 l 507 462 q 493 372 428 280 l 225 -7 l 204 -7 l 126 0 l 77 366 q 73 395 60 408 q 48 421 18 422 l 12 466 l 166 492 l 202 470 l 247 134 l 345 286 q 387 352 387 399 z"},"O":{"x_min":0,"x_max":675,"ha":675,"o":"m 224 102 q 244 50 309 50 q 356 50 394 93 q 433 136 455 200 q 500 332 500 450 q 500 578 452 607 q 431 620 399 620 q 352 620 314 577 q 275 534 253 470 q 231 405 220 340 q 208 274 208 228 q 208 181 212 154 q 215 128 224 102 z m 48 257 q 48 455 140 566 q 233 678 409 678 q 535 678 598 610 q 661 543 661 413 q 661 215 570 102 q 478 -10 300 -10 q 175 -10 112 58 q 48 127 48 257 z"},"(":{"x_min":0,"x_max":396,"ha":396,"o":"m 332 674 q 386 712 408 724 l 420 730 l 441 705 q 196 502 196 192 q 196 -14 307 -139 l 278 -165 q 253 -149 214 -108 q 175 -67 150 -26 q 124 14 102 80 q 81 147 81 210 q 81 273 92 326 q 104 378 124 420 q 143 463 168 502 q 194 542 222 572 q 251 603 279 629 q 307 655 332 674 z"},"C":{"x_min":0,"x_max":552,"ha":552,"o":"m 289 -10 q 170 -10 108 56 q 47 123 47 249 q 47 449 136 562 q 226 674 397 674 q 481 674 532 641 q 582 608 582 555 q 582 515 554 486 q 525 456 494 456 q 463 456 444 469 q 424 482 418 502 q 443 535 443 563 q 443 591 428 606 q 412 621 384 621 q 338 621 303 586 q 268 551 249 494 q 212 382 212 246 q 212 58 333 58 q 414 58 497 133 l 525 101 q 469 48 407 19 q 345 -10 289 -10 z"},"W":{"x_min":0,"x_max":930,"ha":930,"o":"m 852 596 q 828 620 772 627 l 777 667 l 993 667 l 988 626 q 951 623 932 602 l 641 0 l 541 0 l 481 430 l 277 0 l 177 0 l 101 596 q 83 618 46 626 l 52 667 l 325 667 l 319 627 q 269 620 253 605 l 302 185 l 518 667 l 604 667 l 664 185 z"},"A":{"x_min":0,"x_max":614,"ha":614,"o":"m 396 65 l 372 208 l 166 208 l 96 70 q 121 47 176 40 l 171 0 l -55 0 l -50 40 q -3 44 16 65 l 325 667 l 429 667 l 550 74 q 561 47 604 40 l 600 0 l 324 0 l 330 40 q 379 47 396 65 z m 321 511 l 198 271 l 361 271 z"},"f":{"x_min":0,"x_max":320,"ha":320,"o":"m 262 573 l 267 495 q 267 483 266 478 l 370 478 l 360 415 l 256 415 l 200 59 q 193 15 186 -14 q 180 -44 163 -87 q 146 -130 123 -156 q 100 -181 60 -200 q 20 -219 -32 -219 q -84 -219 -118 -197 q -152 -175 -152 -138 q -152 -100 -131 -80 q -110 -61 -86 -61 q -37 -61 -29 -103 q -50 -114 -50 -141 q -50 -171 -21 -171 q 27 -171 40 -117 q 49 -77 54 -16 q 58 45 62 70 l 115 415 l 36 415 l 44 456 q 89 463 125 478 l 132 522 q 145 603 204 656 q 262 709 346 709 q 392 709 431 688 q 470 667 470 628 q 470 588 448 568 q 425 548 400 548 q 375 548 360 560 q 345 571 344 591 q 371 612 371 638 q 371 670 334 670 q 297 670 280 639 q 262 608 262 573 z"},"Q":{"x_min":0,"x_max":675,"ha":675,"o":"m 48 257 q 48 455 140 566 q 233 678 409 678 q 535 678 598 610 q 661 543 661 413 q 661 235 588 126 q 514 16 370 -5 q 377 -49 408 -84 q 439 -119 485 -138 l 485 -142 q 485 -164 467 -174 q 293 -147 244 -6 q 48 22 48 257 z m 224 102 q 244 50 309 50 q 356 50 394 93 q 433 136 455 200 q 500 332 500 450 q 500 578 452 607 q 431 620 399 620 q 352 620 314 577 q 275 534 253 470 q 231 405 220 340 q 208 274 208 228 q 208 181 212 154 q 215 128 224 102 z"},"w":{"x_min":0,"x_max":773,"ha":773,"o":"m 362 433 l 362 477 l 471 484 l 520 120 q 658 335 658 400 q 658 428 628 435 l 625 479 l 741 492 l 778 462 q 774 438 750 379 q 726 320 699 280 l 506 -7 q 437 -7 412 0 l 381 233 l 228 -7 q 217 -8 188 -8 q 159 -8 134 0 l 85 366 q 78 419 19 422 l 13 466 l 160 492 l 196 470 l 242 126 q 319 254 340 304 q 362 355 362 433 z"},"-":{"x_min":0,"x_max":325,"ha":325,"o":"m 45 219 l 60 314 l 291 314 l 276 219 z"},"E":{"x_min":0,"x_max":562,"ha":562,"o":"m 553 503 q 528 496 512 496 q 495 496 485 499 q 483 567 463 606 l 294 606 l 256 372 l 347 376 q 365 377 383 396 q 401 414 413 443 l 455 443 l 422 236 l 380 236 q 373 276 362 292 q 352 309 335 310 l 247 314 l 207 62 l 394 62 q 430 107 457 184 q 481 191 498 191 q 514 191 525 188 l 485 0 l -15 0 l -10 41 q 31 47 62 71 l 145 596 q 127 619 79 626 l 85 667 l 575 667 z"},"s":{"x_min":0,"x_max":442,"ha":442,"o":"m 337 387 q 337 410 318 429 q 300 448 264 448 q 228 448 206 426 q 185 404 185 377 q 185 350 206 332 q 228 315 282 294 q 396 250 396 161 q 396 82 336 37 q 277 -8 171 -8 q 132 -8 89 6 q 46 21 16 45 l 48 170 l 103 160 q 101 136 101 114 q 101 93 104 75 q 132 42 181 42 q 213 42 236 64 q 260 87 260 118 q 260 169 188 196 q 115 222 84 256 q 54 289 54 337 q 54 410 111 452 q 168 493 260 493 q 352 493 427 454 l 393 330 l 333 330 q 337 379 337 387 z"},">":{"x_min":0,"x_max":573,"ha":573,"o":"m 540 349 l 520 222 l 50 47 l 31 140 l 435 285 l 77 431 l 126 524 z"},"l":{"x_min":0,"x_max":297,"ha":297,"o":"m 204 93 q 204 68 227 68 q 245 68 273 84 l 286 48 q 265 27 222 10 q 179 -6 141 -6 q 63 -6 63 81 q 63 98 68 136 l 125 494 q 125 496 129 518 q 139 575 139 590 q 139 638 73 638 l 79 678 l 268 696 l 293 672 l 208 122 q 204 104 204 93 z"},"8":{"x_min":0,"x_max":573,"ha":573,"o":"m 564 534 q 564 485 526 438 q 489 392 430 364 q 538 308 538 212 q 538 116 461 54 q 384 -7 266 -7 q 149 -7 90 35 q 31 77 31 155 q 31 271 176 358 q 102 403 102 486 q 102 570 174 624 q 245 679 350 679 q 455 679 510 640 q 564 601 564 534 z m 396 199 q 396 243 352 270 q 322 290 261 317 q 180 261 180 163 q 180 116 204 89 q 228 62 278 62 q 327 62 362 102 q 396 141 396 199 z m 346 403 q 378 423 399 458 q 420 493 420 530 q 420 566 401 587 q 382 608 342 608 q 303 608 274 578 q 246 549 246 510 q 246 470 272 448 q 297 425 346 403 z"},"\\":{"x_min":0,"x_max":480,"ha":480,"o":"m 392 -112 l 314 -140 l 132 672 l 211 700 z"},"e":{"x_min":0,"x_max":499,"ha":499,"o":"m 181 210 l 170 210 q 166 181 166 160 q 166 113 191 88 q 216 62 258 62 q 299 62 340 77 q 382 92 413 117 l 446 78 q 345 -7 223 -7 q 133 -7 80 46 q 27 99 27 189 q 27 329 104 410 q 181 492 313 492 q 387 492 432 464 q 478 437 478 392 q 478 308 398 259 q 318 210 181 210 z m 179 268 q 248 270 300 306 q 353 341 353 392 q 353 443 302 443 q 251 443 224 400 q 196 356 179 268 z"},"b":{"x_min":0,"x_max":567,"ha":567,"o":"m 379 492 q 453 492 492 446 q 532 400 532 313 q 532 162 458 78 q 384 -7 258 -7 q 220 -7 160 9 q 101 25 71 50 q 41 74 40 98 l 102 494 q 102 496 106 518 q 116 575 116 590 q 116 638 50 638 l 56 678 l 245 696 l 270 672 l 231 425 q 286 492 379 492 z m 324 432 q 282 432 250 390 q 219 348 207 268 l 175 65 q 200 46 238 46 q 291 46 326 89 q 387 164 387 322 q 387 432 324 432 z"},"%":{"x_min":0,"x_max":972,"ha":972,"o":"m 228 296 q 260 296 292 372 q 324 449 324 539 q 324 629 281 629 q 249 629 217 552 q 185 474 185 385 q 185 296 228 296 z m 221 253 q 155 253 120 294 q 84 336 84 413 q 84 532 138 600 q 192 669 287 669 q 354 669 389 628 q 424 587 424 510 q 424 391 370 322 q 316 253 221 253 z m 725 39 q 757 39 789 116 q 821 192 821 282 q 821 372 778 372 q 746 372 714 294 q 682 217 682 128 q 682 39 725 39 z m 718 -4 q 652 -4 616 38 q 581 79 581 156 q 581 275 635 344 q 689 412 784 412 q 851 412 886 371 q 921 330 921 253 q 921 134 867 65 q 813 -4 718 -4 z m 313 -30 l 252 2 l 681 684 l 742 652 z"},"m":{"x_min":0,"x_max":866,"ha":866,"o":"m 631 425 q 601 425 566 374 q 531 322 510 251 l 470 0 l 328 0 l 382 329 q 385 348 385 365 q 385 425 343 425 q 306 425 265 354 q 224 282 210 196 l 178 0 l 37 0 l 94 354 q 96 370 96 376 q 96 418 38 422 l 32 466 l 205 492 l 241 470 l 239 393 q 302 492 400 492 q 454 492 487 465 q 520 438 526 391 q 590 492 688 492 q 748 492 782 460 q 815 427 815 369 q 815 348 812 331 l 779 116 q 776 98 776 92 q 776 68 798 68 q 815 68 844 84 l 857 48 q 837 28 794 11 q 751 -6 717 -6 q 633 -6 633 80 q 633 94 639 136 l 670 329 q 673 348 673 365 q 673 425 631 425 z"},"#":{"x_min":0,"x_max":602,"ha":602,"o":"m 94 346 l 118 426 l 218 426 l 279 588 l 354 570 l 299 426 l 409 426 l 470 588 l 545 570 l 490 426 l 607 426 l 583 346 l 461 346 l 420 237 l 526 237 l 501 157 l 390 157 l 324 -18 l 249 0 l 308 157 l 199 157 l 133 -18 l 58 0 l 117 157 l 12 157 l 37 237 l 147 237 l 188 346 z m 270 346 l 229 237 l 338 237 l 379 346 z"},",":{"x_min":0,"x_max":225,"ha":225,"o":"m 30 23 q 15 40 15 67 q 15 94 38 117 q 62 140 95 140 q 166 140 166 70 q 166 -58 9 -140 l -14 -105 q 25 -79 48 -50 q 72 -20 72 4 q 72 28 50 28 q 42 28 30 23 z"},"n":{"x_min":0,"x_max":585,"ha":585,"o":"m 493 122 l 489 93 q 489 68 511 68 q 528 68 557 84 l 570 48 q 550 28 507 11 q 464 -6 424 -6 q 347 -6 347 80 q 347 103 352 136 l 383 329 q 386 348 386 365 q 386 425 344 425 q 307 425 266 354 q 225 282 211 196 l 179 0 l 38 0 l 95 354 q 97 370 97 376 q 97 418 39 422 l 33 466 l 206 492 l 242 470 l 240 392 q 302 492 401 492 q 461 492 494 460 q 528 427 528 369 q 528 348 525 329 z"},"h":{"x_min":0,"x_max":580,"ha":580,"o":"m 129 590 q 129 638 63 638 l 69 678 l 258 696 l 283 672 l 239 395 q 302 492 399 492 q 459 492 492 460 q 526 427 526 369 q 526 356 521 321 l 490 117 q 487 102 487 92 q 487 68 509 68 q 526 68 555 84 l 568 48 q 548 28 505 11 q 462 -6 422 -6 q 345 -6 345 81 q 345 103 350 136 l 380 320 q 384 342 384 365 q 384 425 342 425 q 306 425 264 353 q 221 281 208 196 l 177 0 l 36 0 l 115 494 q 115 496 119 518 q 129 575 129 590 z"},"z":{"x_min":0,"x_max":472,"ha":472,"o":"m 374 -4 l 184 0 q 119 0 15 -4 l 6 42 l 307 428 l 180 428 q 147 373 136 328 q 124 326 106 326 q 88 326 63 335 l 71 456 l 108 486 q 142 484 274 484 q 406 484 463 486 l 474 445 l 174 56 l 305 56 q 335 95 358 170 l 430 161 l 404 29 z"},"B":{"x_min":0,"x_max":625,"ha":625,"o":"m 380 667 q 615 667 615 526 q 615 394 475 359 q 595 321 595 222 q 595 123 510 62 q 426 0 283 0 l 0 0 l 5 41 q 46 47 77 71 l 160 596 q 142 619 94 626 l 100 667 z m 230 116 q 228 100 228 90 q 228 64 278 62 q 435 66 435 227 q 435 320 296 320 l 263 320 z m 466 521 q 466 602 355 606 q 330 605 320 600 q 309 594 304 577 l 273 383 l 299 383 q 466 383 466 521 z"},"K":{"x_min":0,"x_max":655,"ha":655,"o":"m 517 603 q 517 626 469 626 l 474 667 l 712 667 l 706 626 q 646 623 613 589 l 425 391 l 552 76 q 580 50 624 41 l 619 0 l 462 0 q 411 0 382 58 l 272 341 l 505 581 q 517 593 517 603 z m 85 626 l 91 667 l 377 667 l 371 626 q 328 618 298 596 l 215 71 q 233 52 282 41 l 277 0 l -9 0 l -4 41 q 37 47 68 71 l 151 596 q 133 619 85 626 z"},"R":{"x_min":0,"x_max":632,"ha":632,"o":"m 376 667 q 606 667 606 519 q 606 445 556 396 q 507 347 424 324 q 469 303 483 252 l 535 76 q 542 51 600 41 l 595 0 l 469 0 q 435 0 412 17 q 388 34 381 66 l 329 262 q 318 302 255 302 l 218 71 q 236 52 285 41 l 280 0 l -6 0 l -1 41 q 40 47 71 71 l 154 596 q 136 619 88 626 l 94 667 z m 458 515 q 458 606 359 606 q 323 606 312 599 q 302 592 297 566 l 264 363 l 271 363 q 366 363 412 410 q 458 456 458 515 z"},"T":{"x_min":0,"x_max":603,"ha":603,"o":"m 138 483 q 120 480 103 480 q 86 480 69 483 l 99 671 q 236 667 411 667 q 586 667 642 671 l 612 483 q 596 480 578 480 q 561 480 543 483 q 543 560 526 598 q 474 605 434 606 l 349 71 q 362 57 436 41 l 431 0 l 105 0 l 110 41 q 176 51 202 71 l 287 605 q 279 605 195 599 q 152 551 138 483 z"},"P":{"x_min":0,"x_max":596,"ha":596,"o":"m 383 667 q 617 667 617 510 q 617 449 586 402 q 556 356 505 330 q 404 277 267 277 l 252 277 l 220 71 q 233 57 307 41 l 302 0 l -4 0 l 1 41 q 42 47 73 71 l 156 596 q 138 619 90 626 l 96 667 z m 360 606 q 324 606 313 598 q 302 590 298 565 l 263 343 l 282 343 q 377 343 423 394 q 469 444 469 507 q 469 606 360 606 z"},"|":{"x_min":0,"x_max":309,"ha":309,"o":"m 140 -151 l 40 -151 l 184 758 l 284 758 z"},"t":{"x_min":0,"x_max":364,"ha":364,"o":"m 254 413 q 207 115 207 107 q 207 70 244 70 q 276 70 331 105 l 355 72 q 322 41 269 18 q 216 -4 168 -4 q 121 -4 92 18 q 63 41 63 88 q 63 105 67 125 l 112 413 l 41 413 l 48 457 q 157 496 217 584 l 282 584 l 266 478 l 394 478 l 383 413 z"},"M":{"x_min":0,"x_max":818,"ha":818,"o":"m 94 626 l 100 667 l 341 667 l 422 217 l 632 667 l 868 667 l 862 626 q 819 618 789 596 l 706 71 q 724 52 773 41 l 768 0 l 486 0 l 491 41 q 532 47 563 71 l 628 484 l 399 0 l 322 0 l 229 484 l 164 71 q 182 52 231 41 l 226 0 l 0 0 l 5 41 q 46 47 77 71 l 160 596 q 142 619 94 626 z"},"g":{"x_min":0,"x_max":565,"ha":565,"o":"m 177 -219 q 98 -219 52 -196 q 7 -173 7 -113 q 7 -76 32 -54 q 58 -31 90 -31 q 136 -31 152 -73 q 129 -89 129 -119 q 129 -164 192 -164 q 315 -164 336 36 l 337 48 q 289 -11 218 -11 q 146 -11 100 38 q 54 87 54 181 q 54 334 130 413 q 206 492 326 492 q 373 492 430 472 l 514 491 l 544 476 l 475 49 q 453 -88 379 -154 q 305 -219 177 -219 z m 349 443 q 285 443 242 376 q 198 308 198 179 q 198 50 258 50 q 294 50 322 106 q 351 163 368 262 l 397 434 q 373 443 349 443 z"},"y":{"x_min":0,"x_max":500,"ha":500,"o":"m 387 399 q 387 428 357 435 l 354 479 l 470 492 l 507 462 q 503 439 479 380 q 455 322 428 280 l 206 -65 q 190 -90 190 -107 q 190 -134 222 -134 q 241 -134 256 -122 q 258 -136 258 -142 q 258 -178 232 -199 q 205 -220 172 -220 q 139 -220 117 -202 q 95 -183 95 -150 q 95 -102 164 -5 l 126 0 l 77 366 q 73 395 60 408 q 48 421 18 422 l 12 466 l 166 492 l 202 470 l 249 115 q 387 337 387 399 z"},"@":{"x_min":0,"x_max":921,"ha":921,"o":"m 634 141 q 634 87 665 87 q 691 87 712 116 q 732 145 742 188 q 764 278 764 350 q 764 463 698 526 q 633 589 514 589 q 365 589 262 474 q 159 360 159 189 q 159 58 230 -17 q 301 -92 409 -92 q 487 -92 562 -53 l 586 -100 q 492 -153 393 -153 q 294 -153 216 -116 q 139 -78 88 0 q 38 78 38 184 q 38 384 178 514 q 319 645 525 645 q 690 645 787 564 q 884 482 884 342 q 884 203 805 114 q 726 24 633 24 q 588 24 552 44 q 517 65 509 106 q 475 23 383 23 q 322 23 280 68 q 239 113 239 197 q 239 336 308 408 q 377 479 485 479 q 527 479 577 466 q 608 478 635 478 q 662 478 684 476 l 637 176 q 634 155 634 141 z m 516 229 l 551 428 q 527 435 505 435 q 448 435 409 374 q 370 312 370 198 q 370 146 384 110 q 399 75 428 75 q 458 75 480 116 q 503 158 516 229 z"},"p":{"x_min":0,"x_max":571,"ha":571,"o":"m 343 432 q 302 432 271 394 q 240 356 228 284 l 193 66 q 217 46 263 46 q 309 46 344 89 q 405 164 405 322 q 405 432 343 432 z m 397 492 q 471 492 510 446 q 550 400 550 312 q 550 162 478 78 q 407 -7 282 -7 q 228 -7 186 17 l 163 -132 q 163 -158 206 -173 l 201 -211 l 23 -211 l 12 -182 l 98 354 q 100 370 100 376 q 100 418 42 422 l 36 466 l 210 492 l 246 470 l 244 417 q 300 492 397 492 z"},"X":{"x_min":0,"x_max":586,"ha":586,"o":"m 191 667 q 242 667 271 609 l 353 432 l 490 597 q 464 622 419 627 l 424 667 l 650 667 l 645 627 q 600 624 578 599 l 384 365 l 519 76 q 526 60 538 53 q 550 46 577 41 l 572 0 l 440 0 q 389 0 360 58 l 271 247 l 122 68 q 146 46 192 40 l 187 0 l -39 0 l -34 40 q 14 44 32 65 l 240 314 l 112 591 q 105 607 93 614 q 81 621 54 626 l 59 667 z"},"*":{"x_min":0,"x_max":439,"ha":439,"o":"m 290 424 l 291 458 q 291 479 284 504 q 267 477 260 446 q 252 415 247 408 q 231 389 214 389 q 198 389 189 398 q 180 408 180 422 q 180 437 191 446 q 202 456 226 472 q 251 488 271 512 q 242 509 212 496 q 181 484 170 484 q 159 484 150 492 q 142 501 142 516 q 142 532 154 544 q 166 557 180 557 q 193 557 220 544 q 246 531 274 528 q 261 552 236 573 q 210 594 210 610 q 210 626 222 638 q 235 651 254 651 q 285 651 285 612 q 285 612 284 585 q 284 558 290 538 q 304 562 313 594 q 322 625 332 638 q 342 651 358 651 q 375 651 384 642 q 394 633 394 618 q 394 604 382 593 q 371 582 346 566 q 321 550 303 529 q 330 532 361 544 q 392 557 404 557 q 416 557 424 548 q 433 540 433 524 q 433 509 420 496 q 408 484 394 484 q 381 484 354 496 q 326 509 299 512 q 312 488 335 470 q 358 452 361 445 q 363 435 363 425 q 363 415 350 402 q 338 389 320 389 q 290 389 290 424 z"},"Y":{"x_min":0,"x_max":577,"ha":577,"o":"m 185 71 l 217 269 l 126 585 q 116 617 69 627 l 73 667 l 349 667 l 343 627 q 290 620 273 605 l 343 357 l 503 597 q 478 620 423 627 l 428 667 l 654 667 l 649 627 q 611 624 585 601 l 363 268 l 332 71 q 347 54 409 41 l 404 0 l 98 0 l 103 41 q 156 49 185 71 z"},"c":{"x_min":0,"x_max":452,"ha":452,"o":"m 421 68 q 336 -7 230 -7 q 125 -7 74 42 q 22 92 22 186 q 22 329 95 409 q 168 489 303 489 q 375 489 418 464 q 462 438 462 400 q 462 363 435 340 q 408 318 378 318 q 349 318 332 330 q 314 342 311 360 q 330 382 330 402 q 330 422 318 432 q 306 443 287 443 q 229 443 198 362 q 168 282 168 177 q 168 111 190 81 q 213 51 260 51 q 325 51 390 104 z"},"/":{"x_min":0,"x_max":480,"ha":480,"o":"m 65 -140 l -5 -112 l 434 700 l 503 672 z"},"[":{"x_min":0,"x_max":355,"ha":355,"o":"m 180 738 l 393 738 l 384 684 l 269 672 l 146 -106 l 257 -118 l 249 -172 l 36 -172 z"},"6":{"x_min":0,"x_max":573,"ha":573,"o":"m 241 358 q 299 386 369 386 q 439 386 490 342 q 541 297 541 218 q 541 117 462 53 q 384 -11 274 -11 q 164 -11 110 42 q 56 95 56 195 q 56 367 182 499 q 308 631 511 681 l 527 631 q 408 583 344 525 q 281 467 241 358 z m 396 216 q 396 256 376 286 q 357 317 319 317 q 281 317 219 282 l 217 269 q 208 212 208 172 q 208 58 284 58 q 336 58 366 102 q 396 145 396 216 z"},"r":{"x_min":0,"x_max":456,"ha":456,"o":"m 403 489 q 444 489 464 468 q 484 447 484 414 q 484 381 462 352 q 440 322 412 322 q 383 322 358 347 q 367 358 367 374 q 367 401 341 401 q 308 401 265 329 q 222 257 211 186 l 181 0 l 40 0 l 97 354 q 99 370 99 376 q 99 418 41 422 l 35 466 l 221 492 l 257 470 l 238 352 q 305 489 403 489 z"},"2":{"x_min":0,"x_max":573,"ha":573,"o":"m 329 621 q 291 621 267 590 q 243 558 243 522 q 243 486 253 462 q 213 428 174 428 q 136 428 116 447 q 95 466 95 501 q 95 583 170 631 q 246 679 334 679 q 423 679 481 639 q 539 599 539 525 q 539 431 466 336 q 393 241 213 98 l 482 98 l 466 0 l 13 0 l 22 58 q 231 233 312 342 q 392 450 392 536 q 392 621 329 621 z"},"{":{"x_min":0,"x_max":371,"ha":371,"o":"m 257 532 l 264 429 q 264 385 250 353 q 235 321 194 281 q 215 252 215 214 q 215 176 193 100 q 171 25 171 -14 q 171 -52 198 -80 q 225 -109 272 -112 l 264 -165 q 172 -165 119 -122 q 66 -79 66 -6 q 66 25 94 98 q 121 172 121 194 q 121 215 108 230 q 95 246 82 250 l 69 254 l 79 314 q 82 315 87 316 q 92 317 105 324 q 118 331 128 341 q 154 367 154 412 l 150 525 q 150 617 222 675 q 293 733 406 733 l 398 680 q 336 675 296 634 q 257 594 257 532 z"},"9":{"x_min":0,"x_max":573,"ha":573,"o":"m 377 307 q 319 279 249 279 q 179 279 128 324 q 77 368 77 447 q 77 548 156 612 q 234 676 344 676 q 454 676 508 623 q 562 570 562 470 q 562 298 436 166 q 310 34 107 -16 l 91 34 q 210 82 274 140 q 337 198 377 307 z m 222 449 q 222 409 242 378 q 261 348 299 348 q 337 348 399 383 l 401 396 q 410 453 410 493 q 410 607 334 607 q 282 607 252 564 q 222 520 222 449 z"}," ":{"x_min":0,"x_max":220,"ha":220,"o":""},"I":{"x_min":0,"x_max":341,"ha":341,"o":"m 89 626 l 95 667 l 381 667 l 375 626 q 332 618 302 596 l 219 71 q 237 52 286 41 l 281 0 l -5 0 l 0 41 q 41 47 72 71 l 155 596 q 137 619 89 626 z"},"H":{"x_min":0,"x_max":691,"ha":691,"o":"m 436 626 l 442 667 l 728 667 l 722 626 q 679 618 649 596 l 566 71 q 584 52 633 41 l 628 0 l 342 0 l 347 41 q 388 47 419 71 l 457 310 l 248 310 l 210 71 q 228 52 277 41 l 272 0 l -14 0 l -9 41 q 32 47 63 71 l 146 596 q 128 619 80 626 l 86 667 l 372 667 l 366 626 q 323 618 293 596 l 258 373 l 467 373 l 502 596 q 484 619 436 626 z"},"4":{"x_min":0,"x_max":573,"ha":573,"o":"m 317 181 l 29 181 l 27 215 l 381 667 l 524 667 l 458 255 l 553 255 l 542 183 l 447 183 l 428 64 q 455 45 511 37 l 500 0 l 190 0 l 202 37 q 261 44 298 64 z m 371 527 l 163 253 l 328 253 z"},"~":{"x_min":0,"x_max":573,"ha":573,"o":"m 419 304 q 467 304 521 371 q 579 341 599 321 q 518 198 408 198 q 375 198 318 234 q 260 269 240 269 q 197 269 141 207 q 105 218 64 258 q 97 315 144 346 q 192 377 238 377 q 284 377 338 340 q 391 304 419 304 z"},"D":{"x_min":0,"x_max":679,"ha":679,"o":"m 302 667 q 556 667 622 534 q 648 484 648 407 q 648 330 626 260 q 605 189 558 129 q 510 69 424 34 q 337 0 218 0 l -7 0 l -2 41 q 37 47 69 70 l 153 596 q 135 619 87 626 l 93 667 z m 222 99 q 222 63 258 63 q 315 63 358 89 q 402 115 426 154 q 451 192 466 244 q 492 330 492 429 q 492 605 329 605 l 302 605 l 224 117 q 222 103 222 99 z"},"^":{"x_min":0,"x_max":573,"ha":573,"o":"m 337 667 l 442 667 l 579 351 l 485 301 l 373 570 l 178 301 l 100 351 z"},"0":{"x_min":0,"x_max":573,"ha":573,"o":"m 253 48 q 293 48 330 109 q 367 170 390 269 q 412 368 412 473 q 412 626 345 626 q 305 626 268 564 q 231 503 208 404 q 185 305 185 200 q 185 48 253 48 z m 244 -7 q 153 -7 100 63 q 46 133 46 250 q 46 448 128 562 q 211 677 353 677 q 443 677 497 608 q 551 538 551 422 q 551 223 468 108 q 386 -7 244 -7 z"},"F":{"x_min":0,"x_max":536,"ha":536,"o":"m 554 503 q 530 496 514 496 q 497 496 486 499 q 484 567 464 606 l 294 606 l 255 362 l 346 366 q 364 367 382 386 q 400 404 412 433 l 454 433 l 421 226 l 379 226 q 372 266 362 282 q 351 299 334 300 l 246 304 l 209 71 q 222 57 296 41 l 291 0 l -15 0 l -10 41 q 31 47 62 71 l 145 596 q 127 619 79 626 l 85 667 l 576 667 z"},"`":{"x_min":0,"x_max":208,"ha":208,"o":"m 106 607 q 82 626 82 653 q 82 680 98 695 q 113 710 136 710 q 170 710 188 676 l 249 557 l 210 524 z"},"k":{"x_min":0,"x_max":538,"ha":538,"o":"m 398 408 q 398 440 365 442 l 360 478 l 485 492 l 521 470 q 505 374 357 281 l 438 106 q 448 84 470 84 q 491 84 518 100 l 534 67 q 451 2 399 2 q 347 2 321 59 l 246 224 q 234 218 219 213 q 204 208 203 207 l 170 -3 l 29 -3 l 108 491 q 108 493 112 516 q 122 572 122 587 q 122 635 56 635 l 62 675 l 251 693 l 276 669 l 214 278 q 260 294 308 322 q 398 372 398 408 z"},"u":{"x_min":0,"x_max":584,"ha":584,"o":"m 95 376 q 95 419 37 422 l 31 466 l 216 492 l 253 474 q 200 152 200 119 q 200 60 241 60 q 275 60 316 123 q 357 186 370 265 l 407 484 l 548 484 l 501 197 q 486 101 486 92 q 486 69 506 69 q 529 69 554 84 l 567 46 q 490 -6 427 -6 q 382 -6 362 17 q 343 40 343 86 q 280 -8 185 -8 q 125 -8 91 24 q 57 57 57 113 q 57 130 76 250 q 95 370 95 376 z"},"]":{"x_min":0,"x_max":355,"ha":355,"o":"m 114 738 l 327 738 l 183 -172 l -30 -172 l -22 -118 l 93 -106 l 216 672 l 105 684 z"},"U":{"x_min":0,"x_max":654,"ha":654,"o":"m 308 -7 q 72 -7 72 161 q 72 200 99 353 l 136 596 q 118 619 70 626 l 76 667 l 362 667 l 356 626 q 313 618 283 596 l 236 299 q 220 187 220 168 q 220 60 340 60 q 463 60 490 223 l 547 596 q 529 619 481 626 l 487 667 l 716 667 l 710 626 q 667 618 637 596 l 583 245 q 563 117 500 55 q 438 -7 308 -7 z"},"o":{"x_min":0,"x_max":540,"ha":540,"o":"m 171 167 q 171 106 188 78 q 206 49 243 49 q 300 49 338 126 q 375 203 375 319 q 375 380 358 408 q 341 436 304 436 q 247 436 209 359 q 171 282 171 167 z m 27 191 q 27 336 101 414 q 175 492 313 492 q 414 492 466 442 q 519 392 519 295 q 519 150 445 72 q 371 -7 234 -7 q 133 -7 80 44 q 27 94 27 191 z"},"N":{"x_min":0,"x_max":662,"ha":662,"o":"m 85 626 l 91 667 l 303 667 l 482 183 l 547 596 q 529 619 481 626 l 487 667 l 713 667 l 707 626 q 664 618 634 596 l 540 0 l 388 0 l 217 460 l 155 71 q 173 52 222 41 l 217 0 l -9 0 l -4 41 q 37 47 68 71 l 151 596 q 133 619 85 626 z"},"+":{"x_min":0,"x_max":573,"ha":573,"o":"m 76 238 l 91 333 l 244 333 l 269 490 l 369 490 l 344 333 l 500 333 l 485 238 l 329 238 l 304 82 l 204 82 l 229 238 z"},"G":{"x_min":0,"x_max":619,"ha":619,"o":"m 548 66 q 431 -10 302 -10 q 51 -10 51 249 q 51 450 144 562 q 238 674 416 674 q 506 674 561 641 q 616 608 616 555 q 616 515 588 486 q 559 456 528 456 q 497 456 478 469 q 458 482 452 502 q 478 538 478 564 q 478 621 403 621 q 308 621 257 516 q 206 412 206 249 q 206 58 337 58 q 397 58 405 91 l 428 233 q 400 249 353 252 l 361 310 l 588 310 z"},"q":{"x_min":0,"x_max":564,"ha":564,"o":"m 347 443 q 283 443 240 376 q 196 308 196 179 q 196 50 256 50 q 326 50 366 265 l 394 435 q 370 443 347 443 z m 331 43 q 284 -11 214 -11 q 144 -11 98 38 q 52 87 52 181 q 52 334 128 413 q 204 492 324 492 q 371 492 428 472 l 512 491 l 542 477 q 542 472 447 -134 q 448 -158 490 -173 l 485 -211 l 307 -211 l 296 -182 z"},"d":{"x_min":0,"x_max":570,"ha":570,"o":"m 419 590 q 419 638 353 638 l 359 678 l 548 696 l 573 672 l 487 129 q 483 104 483 93 q 483 69 505 69 q 522 69 551 85 l 564 49 q 544 29 501 12 q 458 -5 424 -5 q 343 -5 340 73 q 317 33 276 13 q 234 -7 189 -7 q 115 -7 76 38 q 36 84 36 172 q 36 322 108 407 q 180 492 305 492 q 358 492 400 468 l 404 492 q 419 579 419 590 z m 392 419 q 369 438 324 438 q 278 438 244 396 q 181 321 181 163 q 181 53 243 53 q 334 53 363 234 z"},"1":{"x_min":0,"x_max":573,"ha":573,"o":"m 53 0 l 63 48 q 153 57 203 78 l 279 557 l 145 557 l 154 615 q 305 626 412 671 l 443 656 l 351 78 q 369 67 408 58 q 448 50 472 48 l 461 0 z"},"5":{"x_min":0,"x_max":573,"ha":573,"o":"m 187 670 q 320 667 350 667 q 381 667 531 669 l 557 648 l 536 572 l 260 572 l 233 405 q 285 418 333 418 q 414 418 468 373 q 523 328 523 241 q 523 134 445 63 q 367 -8 242 -8 q 155 -8 100 26 q 46 60 46 109 q 46 158 73 183 q 100 208 136 208 q 173 208 202 181 q 184 152 184 124 q 184 97 201 80 q 218 62 253 62 q 310 62 340 112 q 370 161 370 243 q 370 348 285 348 q 227 348 151 306 l 105 359 l 150 643 z"}}}
